<?xml version="1.0" encoding="UTF-8" standalone="no"?>
<svg
   xmlns:dc="http://purl.org/dc/elements/1.1/"
   xmlns:cc="http://creativecommons.org/ns#"
   xmlns:rdf="http://www.w3.org/1999/02/22-rdf-syntax-ns#"
   xmlns:svg="http://www.w3.org/2000/svg"
   xmlns="http://www.w3.org/2000/svg"
   xmlns:sodipodi="http://sodipodi.sourceforge.net/DTD/sodipodi-0.dtd"
   xmlns:inkscape="http://www.inkscape.org/namespaces/inkscape"
   sodipodi:docname="logo-wordmark.svg"
   inkscape:version="1.0 (4035a4fb49, 2020-05-01)"
   id="svg8"
   version="1.1"
   viewBox="0 0 161.47153 67.73352"
   height="67.733521mm"
   width="161.47153mm">
  <defs
     id="defs2">
    <rect
       x="18.424765"
       y="125.38453"
       width="53.64658"
       height="54.020264"
       id="rect899" />
  </defs>
  <sodipodi:namedview
     inkscape:window-maximized="0"
     inkscape:window-y="16"
     inkscape:window-x="0"
     inkscape:window-height="1060"
     inkscape:window-width="956"
     showgrid="false"
     inkscape:document-rotation="0"
     inkscape:current-layer="layer1"
     inkscape:document-units="mm"
     inkscape:cy="312.61109"
     inkscape:cx="390.48848"
     inkscape:zoom="0.5"
     inkscape:pageshadow="2"
     inkscape:pageopacity="0.0"
     borderopacity="1.0"
     bordercolor="#666666"
     pagecolor="#ffffff"
     id="base" />
  <metadata
     id="metadata5">
    <rdf:RDF>
      <cc:Work
         rdf:about="">
        <dc:format>image/svg+xml</dc:format>
        <dc:type
           rdf:resource="http://purl.org/dc/dcmitype/StillImage" />
        <dc:title />
      </cc:Work>
    </rdf:RDF>
  </metadata>
  <g
     transform="translate(164.86914,-28.197887)"
     id="layer1"
     inkscape:groupmode="layer"
     inkscape:label="Layer 1">
    <path
       id="path1016-1"
       style="fill:#d3bc5f;fill-opacity:1;stroke:none;stroke-width:0.132291"
       d="m -132.85714,28.197896 a 33.866664,33.866664 0 0 0 -6.37997,0.60151 12.7,12.7 0 0 1 -6.3469,11.26804 12.7,12.7 0 0 1 -12.93203,-0.13746 33.866664,33.866664 0 0 0 -3.69745,5.20124 33.866664,33.866664 0 0 0 -2.65565,5.80274 12.7,12.7 0 0 1 6.58513,11.13059 12.7,12.7 0 0 1 -6.58513,11.13059 33.866664,33.866664 0 0 0 6.35258,11.00398 12.699999,12.699999 0 0 1 12.93255,-0.13746 12.699999,12.699999 0 0 1 6.34741,11.26856 33.866664,33.866664 0 0 0 12.70569,0 12.699999,12.699999 0 0 1 6.3469,-11.26856 12.699999,12.699999 0 0 1 12.93254,0.13746 33.866664,33.866664 0 0 0 3.69693,-5.20124 33.866664,33.866664 0 0 0 2.65566,-5.80274 12.699999,12.699999 0 0 1 -6.58513,-11.13059 12.699999,12.699999 0 0 1 6.58461,-11.13059 33.866664,33.866664 0 0 0 -6.35258,-11.00398 12.699999,12.699999 0 0 1 -12.93203,0.13746 12.699999,12.699999 0 0 1 -6.34742,-11.26804 33.866664,33.866664 0 0 0 -6.32571,-0.60151 z m -0.12247,14.81666 a 19.049999,19.049999 0 0 1 0.0956,0 19.049999,19.049999 0 0 1 19.05,19.05 19.049999,19.049999 0 0 1 -19.05,19.05 19.049999,19.049999 0 0 1 -19.05,-19.05 19.049999,19.049999 0 0 1 18.9544,-19.05 z" />
    <path
       id="path1085-0"
       style="fill:#d3bc5f;fill-opacity:1;stroke:none;stroke-width:0.204315"
       d="m -132.88349,51.077976 a 6.35,12.7 60 0 1 -4.44521,3.28765 6.35,12.7 60 0 1 -5.06998,2.20555 6.35,12.7 0 0 1 0.62477,5.49321 6.35,12.7 0 0 1 -0.62528,5.49372 12.7,6.35 30 0 1 5.07049,2.20555 12.7,6.35 30 0 1 4.44521,3.28765 6.35,12.7 60 0 1 4.44469,-3.28765 6.35,12.7 60 0 1 5.06997,-2.20607 6.35,12.7 0 0 1 -0.62477,-5.4932 6.35,12.7 0 0 1 0.62477,-5.49321 12.7,6.35 30 0 1 -5.06997,-2.20555 12.7,6.35 30 0 1 -4.44469,-3.28765 z" />
    <path
       d="m -71.723454,49.876517 h -6.7564 v 29.1084 h -7.9756 v -29.1084 h -7.162799 v -6.096 h 22.707599 z"
       style="font-style:normal;font-variant:normal;font-weight:bold;font-stretch:ultra-condensed;font-size:50.8px;line-height:1.25;font-family:'Fira Sans Compressed';-inkscape-font-specification:'Fira Sans Compressed Bold Ultra-Condensed';fill:#d3bc5f;fill-opacity:1;stroke:none;stroke-width:0.264583"
       id="path920" />
    <path
       d="m -57.296359,79.035717 q -2.6416,10.414 -13.3096,11.176 l -0.8128,-5.2832 q 3.2004,-0.5588 4.826,-1.8796 1.6764,-1.27 2.5908,-4.064 h -2.8448 l -6.4516,-26.9748 h 7.7216 l 3.556,22.0472 4.1656,-22.0472 h 7.569199 z"
       style="font-style:normal;font-variant:normal;font-weight:bold;font-stretch:ultra-condensed;font-size:50.8px;line-height:1.25;font-family:'Fira Sans Compressed';-inkscape-font-specification:'Fira Sans Compressed Bold Ultra-Condensed';fill:#d3bc5f;fill-opacity:1;stroke:none;stroke-width:0.264583"
       id="path922" />
    <path
       d="m -34.48719,51.146517 q 2.8956,0 4.5212,2.0828 1.6764,2.0828 1.6764,5.588 v 20.1676 h -7.6708 v -19.3548 q 0,-2.6416 -1.4732,-2.6416 -1.4732,0 -3.2004,3.2512 v 18.7452 h -7.6708 v -26.9748 h 6.6548 l 0.5588,3.2004 q 1.3208,-2.032 2.8956,-3.048 1.5748,-1.016 3.7084,-1.016 z"
       style="font-style:normal;font-variant:normal;font-weight:bold;font-stretch:ultra-condensed;font-size:50.8px;line-height:1.25;font-family:'Fira Sans Compressed';-inkscape-font-specification:'Fira Sans Compressed Bold Ultra-Condensed';fill:#d3bc5f;fill-opacity:1;stroke:none;stroke-width:0.264583"
       id="path924" />
    <path
       d="m -3.3976103,64.964117 q 0,1.6256 -0.1524,2.794 H -17.26601 q 0.254,3.6576 1.3208,5.08 1.1176,1.3716 3.2004,1.3716 1.3716,0 2.6416,-0.508 1.2699997,-0.5588 2.7431997,-1.6764 l 3.1496,4.1656 q -3.7592,3.6576 -9.0931997,3.6576 -5.6896,0 -8.636,-3.7084 -2.9464,-3.7592 -2.9464,-10.4648 0,-6.7056 2.794,-10.6172 2.8448,-3.9116 8.0772,-3.9116 4.9783997,0 7.7723997,3.556 2.8448,3.5052 2.8448,10.2616 z m -7.4675997,-2.1844 q 0,-3.4544 -0.7112,-4.9784 -0.6604,-1.5748 -2.3876,-1.5748 -1.524,0 -2.3368,1.524 -0.762,1.4732 -0.9652,5.3848 h 6.4008 z"
       style="font-style:normal;font-variant:normal;font-weight:bold;font-stretch:ultra-condensed;font-size:50.8px;line-height:1.25;font-family:'Fira Sans Compressed';-inkscape-font-specification:'Fira Sans Compressed Bold Ultra-Condensed';fill:#d3bc5f;fill-opacity:1;stroke:none;stroke-width:0.264583"
       id="path926" />
  </g>
</svg>
